<svg width="16" height="16" viewBox="0 0 16 16" fill="none" xmlns="http://www.w3.org/2000/svg">
<path d="M1.33337 7.33332H14.6667V13.3333C14.6667 13.5101 14.5965 13.6797 14.4714 13.8047C14.3464 13.9298 14.1769 14 14 14H2.00004C1.82323 14 1.65366 13.9298 1.52864 13.8047C1.40361 13.6797 1.33337 13.5101 1.33337 13.3333V7.33332ZM11.3334 1.99999H14C14.1769 1.99999 14.3464 2.07023 14.4714 2.19525C14.5965 2.32028 14.6667 2.48985 14.6667 2.66666V5.99999H1.33337V2.66666C1.33337 2.48985 1.40361 2.32028 1.52864 2.19525C1.65366 2.07023 1.82323 1.99999 2.00004 1.99999H4.66671V0.666656H6.00004V1.99999H10V0.666656H11.3334V1.99999Z" fill="#E61C44"/>
</svg>
