<svg width="24" height="18" viewBox="0 0 24 18" fill="none" xmlns="http://www.w3.org/2000/svg">
<path d="M20.317 1.60293C18.7873 0.92338 17.147 0.422718 15.4319 0.135969C15.4007 0.130434 15.3695 0.144265 15.3534 0.171926C15.1424 0.535202 14.9087 1.00913 14.7451 1.38163C12.9004 1.11425 11.0652 1.11425 9.25832 1.38163C9.09465 1.00085 8.85248 0.535202 8.64057 0.171926C8.62449 0.145187 8.59328 0.131357 8.56205 0.135969C6.84791 0.421802 5.20756 0.922464 3.67693 1.60293C3.66368 1.60846 3.65233 1.61769 3.64479 1.62967C0.533392 6.13013 -0.31895 10.52 0.0991801 14.8554C0.101072 14.8766 0.11337 14.8969 0.130398 14.9098C2.18321 16.3693 4.17171 17.2554 6.12328 17.8428C6.15451 17.852 6.18761 17.8409 6.20748 17.816C6.66913 17.2057 7.08064 16.5621 7.43348 15.8853C7.4543 15.8456 7.43442 15.7986 7.39186 15.7829C6.73913 15.5432 6.1176 15.2509 5.51973 14.919C5.47244 14.8923 5.46865 14.8268 5.51216 14.7954C5.63797 14.7041 5.76382 14.6092 5.88396 14.5133C5.90569 14.4958 5.93598 14.4921 5.96153 14.5031C9.88928 16.2394 14.1415 16.2394 18.023 14.5031C18.0485 14.4912 18.0788 14.4949 18.1015 14.5124C18.2216 14.6083 18.3475 14.7041 18.4742 14.7954C18.5177 14.8268 18.5149 14.8923 18.4676 14.919C17.8697 15.2574 17.2482 15.5432 16.5945 15.782C16.552 15.7977 16.533 15.8456 16.5538 15.8853C16.9143 16.5611 17.3258 17.2047 17.7789 17.8151C17.7978 17.8409 17.8319 17.852 17.8631 17.8428C19.8241 17.2554 21.8126 16.3693 23.8654 14.9098C23.8834 14.8969 23.8948 14.8775 23.8967 14.8563C24.3971 9.84408 23.0585 5.49024 20.3482 1.63058C20.3416 1.61769 20.3303 1.60846 20.317 1.60293ZM8.02002 12.2156C6.8375 12.2156 5.86313 11.1645 5.86313 9.8736C5.86313 8.58274 6.8186 7.53164 8.02002 7.53164C9.23087 7.53164 10.1958 8.59197 10.1769 9.8736C10.1769 11.1645 9.22141 12.2156 8.02002 12.2156ZM15.9947 12.2156C14.8123 12.2156 13.8379 11.1645 13.8379 9.8736C13.8379 8.58274 14.7933 7.53164 15.9947 7.53164C17.2056 7.53164 18.1705 8.59197 18.1516 9.8736C18.1516 11.1645 17.2056 12.2156 15.9947 12.2156Z" fill="white"/>
</svg>
