<svg width="48" height="48" viewBox="0 0 48 48" fill="none" xmlns="http://www.w3.org/2000/svg">
<path d="M42.0223 42.0224C41.3611 42.6836 40.9854 43.5145 40.8662 44.3753L30.9352 34.4441L34.4441 30.9352L44.3752 40.8662C43.5153 40.9862 42.6836 41.3611 42.0223 42.0224Z" fill="#495BCC"/>
<path d="M43.8621 47.9975C46.146 47.9975 47.9975 46.146 47.9975 43.8621C47.9975 41.5781 46.146 39.7267 43.8621 39.7267C41.5782 39.7267 39.7267 41.5781 39.7267 43.8621C39.7267 46.146 41.5782 47.9975 43.8621 47.9975Z" fill="#E61C44"/>
<path d="M34 27.9988L7.01794 1.16944L0 0L1.17019 7.01794L28.1515 33.8473L34 27.9988Z" fill="url(#paint0_linear)"/>
<path d="M5.9776 42.0224C6.63882 42.6836 7.01457 43.5145 7.13372 44.3753L17.0648 34.4442L13.5558 30.9353L3.62476 40.8662C4.48463 40.9862 5.31629 41.3611 5.9776 42.0224Z" fill="#495BCC"/>
<path d="M4.13541 47.9975C6.41933 47.9975 8.27081 46.146 8.27081 43.8621C8.27081 41.5781 6.41933 39.7267 4.13541 39.7267C1.85148 39.7267 0 41.5781 0 43.8621C0 46.146 1.85148 47.9975 4.13541 47.9975Z" fill="#E61C44"/>
<path d="M19.0626 34.7868L13.2131 28.9374L40.982 1.16944L47.9999 0L46.8306 7.01794L19.0626 34.7868Z" fill="url(#paint1_linear)"/>
<path d="M29.8278 38.016L38.0159 29.8279V26.3189H34.507L26.3188 34.507V38.016H29.8278Z" fill="#E61C44"/>
<path d="M18.1721 38.016L9.98401 29.8279V26.3189H13.493L21.6811 34.507V38.016H18.1721Z" fill="#E61C44"/>
<defs>
<linearGradient id="paint0_linear" x1="13.4527" y1="10.5026" x2="43.3463" y2="44.6334" gradientUnits="userSpaceOnUse">
<stop stop-color="white"/>
<stop offset="1" stop-color="#C5C9F7"/>
</linearGradient>
<linearGradient id="paint1_linear" x1="26.9771" y1="10.7941" x2="48.239" y2="32.0543" gradientUnits="userSpaceOnUse">
<stop stop-color="white"/>
<stop offset="1" stop-color="#C5C9F7"/>
</linearGradient>
</defs>
</svg>
