<svg width="42" height="48" viewBox="0 0 42 48" fill="none" xmlns="http://www.w3.org/2000/svg">
<path d="M39.8759 25.1119L37.8866 25.6648V31.2913C37.8869 32.1494 37.8218 33.0063 37.692 33.8547L39.408 33.1508C40.1749 32.8362 40.8307 32.3017 41.2921 31.6151C41.7536 30.9286 42 30.1209 42 29.2946V26.7186C42 26.4613 41.9403 26.2075 41.8255 25.977C41.7106 25.7465 41.5439 25.5456 41.3382 25.39C41.1325 25.2344 40.8935 25.1283 40.6398 25.0801C40.3861 25.0318 40.1247 25.0427 39.8759 25.1119Z" fill="url(#paint0_linear)"/>
<path d="M4.11169 31.2913V25.6648L2.12406 25.1118C1.87531 25.0427 1.61387 25.0318 1.3602 25.0801C1.10653 25.1283 0.867502 25.2344 0.661812 25.39C0.456122 25.5456 0.28935 25.7465 0.174538 25.977C0.0597267 26.2075 -1.033e-05 26.4613 9.16865e-09 26.7186V29.2946C-5.48542e-05 30.1206 0.24611 30.9281 0.707275 31.6145C1.16844 32.301 1.82383 32.8355 2.59031 33.1504L4.3063 33.8543C4.17631 33.0061 4.11125 32.1493 4.11169 31.2913Z" fill="url(#paint1_linear)"/>
<path d="M31.0306 14.0028C27.7641 14.9168 24.3925 15.4053 21 15.4562C17.6075 15.4053 14.2359 14.9168 10.9694 14.0028C10.2365 21.4504 4.11169 25.6648 4.11169 25.6648V31.2913C4.14308 35.7335 5.93617 39.9831 9.09986 43.1133C12.2635 46.2434 16.5411 48 20.9996 48C25.458 48 29.7356 46.2434 32.8993 43.1133C36.063 39.9831 37.8561 35.7335 37.8875 31.2913V25.6648C37.8875 25.6648 31.7635 21.4504 31.0306 14.0028Z" fill="url(#paint2_linear)"/>
<path d="M20.9999 15.4561C17.6074 15.4053 14.2358 14.9168 10.9693 14.0028C10.2364 21.4504 4.11161 25.6648 4.11161 25.6648C4.11161 25.6648 -3.61455 5.91888 10.4294 5.3313C10.4294 5.3313 13.2558 -3.94366 29.0843 1.97345C44.4718 7.725 39.698 22.5422 37.8882 25.6648C37.8882 25.6648 31.7634 21.4504 31.0305 14.0028C27.764 14.9168 24.3924 15.4053 20.9999 15.4561Z" fill="#E61C44"/>
<path d="M10.0624 33.8547C10.6419 36.3115 12.0376 38.5012 14.023 40.0684C16.0084 41.6356 18.467 42.4884 21 42.4884C23.5329 42.4884 25.9915 41.6356 27.9769 40.0684C29.9623 38.5012 31.358 36.3115 31.9375 33.8547H10.0624Z" fill="#495BCC"/>
<path d="M29.0736 39.0678C28.028 40.1489 26.7744 41.0089 25.3878 41.5965C24.0011 42.184 22.5098 42.487 21.003 42.4874C19.4962 42.4878 18.0047 42.1855 16.6178 41.5987C15.2308 41.0119 13.9768 40.1526 12.9307 39.072C12.9307 39.072 15.9357 37.4206 21.0042 37.4206C25.9178 37.4206 28.8936 38.9719 29.0736 39.0678Z" fill="#E61C44"/>
<path d="M11.9509 26.189C11.806 26.1892 11.6644 26.1466 11.5439 26.0666C11.4233 25.9866 11.3293 25.8727 11.2738 25.7394C11.2182 25.6062 11.2036 25.4595 11.2317 25.3179C11.2599 25.1764 11.3295 25.0463 11.4319 24.9442C12.3081 24.1998 13.4219 23.7909 14.5734 23.7909C15.7249 23.7909 16.8387 24.1998 17.7149 24.9442C17.8487 25.0815 17.9229 25.2657 17.9217 25.4571C17.9205 25.6485 17.8439 25.8317 17.7083 25.9673C17.5728 26.1029 17.3893 26.1801 17.1972 26.1822C17.0052 26.1843 16.82 26.1111 16.6816 25.9784C16.0816 25.5075 15.3402 25.251 14.5764 25.2503C13.8126 25.2495 13.0707 25.5045 12.4698 25.9742C12.4018 26.0423 12.3209 26.0964 12.2319 26.1332C12.1428 26.1701 12.0473 26.189 11.9509 26.189Z" fill="#495BCC"/>
<path d="M30.0492 26.189C29.8569 26.1899 29.672 26.115 29.5349 25.9805C28.9341 25.5087 28.1914 25.2521 27.4265 25.2521C26.6616 25.2521 25.9189 25.5087 25.3181 25.9805C25.1796 26.1131 24.9944 26.1862 24.8023 26.1841C24.6103 26.1819 24.4268 26.1047 24.2913 25.969C24.1558 25.8333 24.0793 25.6501 24.0781 25.4587C24.077 25.2673 24.1513 25.0831 24.2852 24.9459C25.1613 24.2013 26.2752 23.7923 27.4267 23.7923C28.5782 23.7923 29.6921 24.2013 30.5682 24.9459C30.6704 25.048 30.74 25.178 30.768 25.3195C30.7961 25.461 30.7814 25.6076 30.7259 25.7408C30.6703 25.874 30.5764 25.9877 30.456 26.0677C30.3355 26.1478 30.194 26.1904 30.0492 26.1903V26.189Z" fill="#495BCC"/>
<defs>
<linearGradient id="paint0_linear" x1="39.3965" y1="27.7824" x2="43.6452" y2="29.8611" gradientUnits="userSpaceOnUse">
<stop stop-color="white"/>
<stop offset="1" stop-color="#C5C9F7"/>
</linearGradient>
<linearGradient id="paint1_linear" x1="1.70386" y1="27.7822" x2="5.95141" y2="29.8597" gradientUnits="userSpaceOnUse">
<stop stop-color="white"/>
<stop offset="1" stop-color="#C5C9F7"/>
</linearGradient>
<linearGradient id="paint2_linear" x1="17.4756" y1="24.552" x2="38.2545" y2="45.1938" gradientUnits="userSpaceOnUse">
<stop stop-color="white"/>
<stop offset="1" stop-color="#C5C9F7"/>
</linearGradient>
</defs>
</svg>
