<svg width="48" height="48" viewBox="0 0 48 48" fill="none" xmlns="http://www.w3.org/2000/svg">
<g clip-path="url(#clip0)">
<path d="M27.3956 8.74121C27.2164 8.08151 27.6062 7.39998 28.2672 7.22082C30.5479 6.60103 32.2474 4.73562 32.7074 2.47917H29.1146C28.4294 2.47917 27.875 1.92474 27.875 1.23958C27.875 0.554424 28.4294 0 29.1146 0H34.0729C34.7581 0 35.3125 0.554424 35.3125 1.23958C35.3125 5.14716 32.6833 8.5899 28.9161 9.6128C28.2777 9.79015 27.5799 9.41877 27.3956 8.74121Z" fill="#495BCC"/>
<path d="M25.3958 11.1563V18.5938C25.3958 19.2878 24.8505 19.8333 24.1562 19.8333C23.462 19.8333 22.9166 19.2878 22.9166 18.5938V11.1563C22.9166 10.462 23.462 9.91667 24.1562 9.91667C24.8505 9.91667 25.3958 10.462 25.3958 11.1563Z" fill="#495BCC"/>
<path d="M19.3964 9.6128C15.6292 8.5899 13 5.14716 13 1.23958C13 0.554424 13.5544 0 14.2396 0H19.1979C19.8831 0 20.4375 0.554424 20.4375 1.23958C20.4375 1.92474 19.8831 2.47917 19.1979 2.47917H15.605C16.065 4.73562 17.7646 6.60103 20.0452 7.22082C20.7062 7.39998 21.096 8.0815 20.9168 8.74121C20.7325 9.41901 20.0345 9.79006 19.3964 9.6128Z" fill="#495BCC"/>
<path d="M29.625 26H18.375C17.5874 26 16.9688 26.6848 16.9688 27.5566V46.4434C16.9688 47.315 17.5874 48 18.375 48H29.625C30.4126 48 31.0312 47.315 31.0312 46.4434V27.5566C31.0312 26.6848 30.4126 26 29.625 26Z" fill="url(#paint0_linear)"/>
<path d="M43.6875 16.25H42.2812V14.8438C42.2812 14.0665 41.6523 13.4375 40.875 13.4375C40.0977 13.4375 39.4688 14.0665 39.4688 14.8438V16.25H38.0625C37.2852 16.25 36.6562 16.879 36.6562 17.6562C36.6562 18.4335 37.2852 19.0625 38.0625 19.0625H39.4688V20.4688C39.4688 21.246 40.0977 21.875 40.875 21.875C41.6523 21.875 42.2812 21.246 42.2812 20.4688V19.0625H43.6875C44.4648 19.0625 45.0938 18.4335 45.0938 17.6562C45.0938 16.879 44.4648 16.25 43.6875 16.25Z" fill="url(#paint1_linear)"/>
<path d="M9.9375 22.4375H8.53125V21.0312C8.53125 20.254 7.90228 19.625 7.125 19.625C6.34772 19.625 5.71875 20.254 5.71875 21.0312V22.4375H4.3125C3.53522 22.4375 2.90625 23.0665 2.90625 23.8438C2.90625 24.621 3.53522 25.25 4.3125 25.25H5.71875V26.6562C5.71875 27.4335 6.34772 28.0625 7.125 28.0625C7.90228 28.0625 8.53125 27.4335 8.53125 26.6562V25.25H9.9375C10.7148 25.25 11.3438 24.621 11.3438 23.8438C11.3438 23.0665 10.7148 22.4375 9.9375 22.4375Z" fill="url(#paint2_linear)"/>
<path d="M46.5938 48H35.25C34.4727 48 33.8438 47.2055 33.8438 46.2237V31.7763C33.8438 30.7945 34.4727 30 35.25 30H46.5938C47.371 30 48 30.7945 48 31.7763V46.2237C48 47.2055 47.371 48 46.5938 48Z" fill="#E61C44"/>
<path d="M12.75 48H1.40625C0.628969 48 0 47.1153 0 46.022V37.978C0 36.8847 0.628969 36 1.40625 36H12.75C13.5273 36 14.1562 36.8847 14.1562 37.978V46.022C14.1562 47.1153 13.5273 48 12.75 48Z" fill="#E61C44"/>
<path d="M29.1146 0H19.198C18.5037 0 17.9584 0.545334 17.9584 1.23958V6.19792C17.9584 9.61917 20.735 12.3958 24.1563 12.3958C27.5775 12.3958 30.3542 9.61917 30.3542 6.19792V1.23958C30.3542 0.545334 29.8089 0 29.1146 0Z" fill="url(#paint3_linear)"/>
<path d="M27.875 17.3542H20.4375C19.074 17.3542 17.9584 18.3995 17.9584 19.6771V20.8385C17.9584 21.4889 18.5037 22 19.198 22H29.1146C29.8089 22 30.3542 21.4889 30.3542 20.8385V19.6771C30.3542 18.3995 29.2386 17.3542 27.875 17.3542Z" fill="#495BCC"/>
</g>
<defs>
<linearGradient id="paint0_linear" x1="22.5328" y1="32.8265" x2="41.1745" y2="46.3702" gradientUnits="userSpaceOnUse">
<stop stop-color="white"/>
<stop offset="1" stop-color="#C5C9F7"/>
</linearGradient>
<linearGradient id="paint1_linear" x1="39.9947" y1="16.0556" x2="47.451" y2="24.5305" gradientUnits="userSpaceOnUse">
<stop stop-color="white"/>
<stop offset="1" stop-color="#C5C9F7"/>
</linearGradient>
<linearGradient id="paint2_linear" x1="6.24469" y1="22.2431" x2="13.701" y2="30.718" gradientUnits="userSpaceOnUse">
<stop stop-color="white"/>
<stop offset="1" stop-color="#C5C9F7"/>
</linearGradient>
<linearGradient id="paint3_linear" x1="22.863" y1="3.84636" x2="33.8173" y2="16.2971" gradientUnits="userSpaceOnUse">
<stop stop-color="white"/>
<stop offset="1" stop-color="#C5C9F7"/>
</linearGradient>
<clipPath id="clip0">
<rect width="48" height="48" fill="white"/>
</clipPath>
</defs>
</svg>
