<svg width="54" height="48" viewBox="0 0 54 48" fill="none" xmlns="http://www.w3.org/2000/svg">
<path d="M42.8203 16.0084L39.6562 12.8H28.582L27.1165 9.59999L25.418 12.8H14.3438L11.1797 15.8568L4.74609 32H49.1484L42.8203 16.0084Z" fill="url(#paint0_linear)"/>
<path d="M42.8203 16.0084L39.6562 12.8H28.582L27.1165 9.59999L25.418 12.8H14.3438L11.1797 15.8568L19.5 20L34 20.5L42.8203 16.0084Z" fill="#425780"/>
<path d="M53.8424 38.4437L50.5111 21.8359C49.4976 16.6 44.9307 12.8 39.6562 12.8C35.3303 12.8 31.4494 15.3281 29.6666 19.2H24.3334C22.5506 15.3281 18.6697 12.8 14.3438 12.8C9.06926 12.8 4.50236 16.6 3.48891 21.8359L0.166852 38.389C0.055582 38.8813 0 39.4078 0 40C0 44.411 3.54723 48 7.91016 48C10.6138 48 13.216 46.6125 14.6991 44.2813L20.4 35.2H33.6L39.4095 44.2891C40.8895 46.6125 43.3862 48 46.0898 48C50.4528 48 54 44.411 54 40C54 39.4078 53.9444 38.8813 53.8424 38.4437ZM14.3438 28.8C11.7266 28.8 9.59766 26.6468 9.59766 24C9.59766 21.3532 11.7266 19.2 14.3438 19.2C16.9609 19.2 19.0898 21.3532 19.0898 24C19.0898 26.6468 16.9609 28.8 14.3438 28.8ZM29.1641 28.8H24.8359C23.9615 28.8 23.2539 28.0844 23.2539 27.2C23.2539 26.3156 23.9615 25.6 24.8359 25.6H29.1641C30.0385 25.6 30.7461 26.3156 30.7461 27.2C30.7461 28.0844 30.0385 28.8 29.1641 28.8ZM42.8203 25.6H41.2383V27.2C41.2383 28.0844 40.5307 28.8 39.6562 28.8C38.7818 28.8 38.0742 28.0844 38.0742 27.2V25.6H36.4922C35.6177 25.6 34.9102 24.8844 34.9102 24C34.9102 23.1156 35.6177 22.4 36.4922 22.4H38.0742V20.8C38.0742 19.9156 38.7818 19.2 39.6562 19.2C40.5307 19.2 41.2383 19.9156 41.2383 20.8V22.4H42.8203C43.6948 22.4 44.4023 23.1156 44.4023 24C44.4023 24.8844 43.6948 25.6 42.8203 25.6ZM28.582 1.6C28.582 0.715627 27.8744 0 27 0C26.1256 0 25.418 0.715627 25.418 1.6V12.8H28.582V1.6Z" fill="#E61C44"/>
<path d="M28.582 1.6C28.582 0.715627 27.8744 0 27 0C26.1256 0 25.418 0.715627 25.418 1.6V12.8H28.582V1.6Z" fill="url(#paint1_linear)"/>
<defs>
<linearGradient id="paint0_linear" x1="22.3146" y1="16.5506" x2="33.3264" y2="38.377" gradientUnits="userSpaceOnUse">
<stop stop-color="white"/>
<stop offset="1" stop-color="#C5C9F7"/>
</linearGradient>
<linearGradient id="paint1_linear" x1="26.6699" y1="3.97177" x2="30.3147" y2="4.87266" gradientUnits="userSpaceOnUse">
<stop stop-color="white"/>
<stop offset="1" stop-color="#C5C9F7"/>
</linearGradient>
</defs>
</svg>
